SplineFontDB: 3.0
FontName: MJ_Cal-Regular
FullName: MJ_Cal-Regular
FamilyName: MJ_Cal
Weight: Regular
Copyright: Copyright (c) 2009-2010 Design Science, Inc.
Version: 3.0
ItalicAngle: 0
UnderlinePosition: -100
UnderlineWidth: 50
Ascent: 800
Descent: 200
InvalidEm: 0
sfntRevision: 0x00030000
LayerCount: 2
Layer: 0 0 "Back" 1
Layer: 1 0 "Fore" 0
XUID: [1021 555 1361428464 26355]
StyleMap: 0x0040
FSType: 0
OS2Version: 3
OS2_WeightWidthSlopeOnly: 0
OS2_UseTypoMetrics: 0
CreationTime: 1255375311
ModificationTime: 1520407687
PfmFamily: 81
TTFWeight: 400
TTFWidth: 5
LineGap: 0
VLineGap: 0
Panose: 0 0 0 0 0 0 0 0 0 0
OS2TypoAscent: 789
OS2TypoAOffset: 0
OS2TypoDescent: -216
OS2TypoDOffset: 0
OS2TypoLinegap: 0
OS2WinAscent: 789
OS2WinAOffset: 0
OS2WinDescent: 216
OS2WinDOffset: 0
HheadAscent: 789
HheadAOffset: 0
HheadDescent: -216
HheadDOffset: 0
OS2SubXSize: 650
OS2SubYSize: 700
OS2SubXOff: 0
OS2SubYOff: 140
OS2SupXSize: 650
OS2SupYSize: 700
OS2SupXOff: 0
OS2SupYOff: 480
OS2StrikeYSize: 49
OS2StrikeYPos: 258
OS2CapHeight: 682
OS2Vendor: 'PfEd'
OS2CodePages: 2000008f.5e030000
OS2UnicodeRanges: 800000ef.1000eced.00000000.00000000
MarkAttachClasses: 1
DEI: 91125
LangName: 1033 "" "" "" "FontForge 2.0 : MJ_Cal-Regular" "" "Version 1.1" "" "" "" "" "" "" "" "Copyright (c) 2009-2010, Design Science, Inc. (<www.mathjax.org>),+AAoA-with Reserved Font Name MathJax_Caligraphic.+AAoACgAA-This Font Software is licensed under the SIL Open Font License, Version 1.1.+AAoA-This license available with a FAQ at:+AAoA-http://scripts.sil.org/OFL" "http://scripts.sil.org/OFL" "" "MJ_Cal" "Regular"
Encoding: UnicodeBmp
UnicodeInterp: none
NameList: AGL For New Fonts
DisplaySize: -48
AntiAlias: 1
FitToEm: 0
WinInfo: 38 38 12
BeginPrivate: 5
BlueValues 23 [-20 0 665 666 682 717]
BlueScale 7 0.03963
BlueShift 1 0
StdHW 4 [50]
StdVW 4 [50]
EndPrivate
BeginChars: 65537 42

StartChar: .notdef
Encoding: 65536 -1 0
Width: 250
Flags: MW
HStem: 0 50<100 150 100 200> 483 50<100 150 100 100>
VStem: 50 50<50 50 50 483> 150 50<50 483 483 483>
LayerCount: 2
Fore
SplineSet
50 0 m 1
 50 533 l 1
 200 533 l 1
 200 0 l 1
 50 0 l 1
100 50 m 1
 150 50 l 1
 150 483 l 1
 100 483 l 1
 100 50 l 1
EndSplineSet
EndChar

StartChar: zero
Encoding: 48 48 2
Width: 500
GlyphClass: 2
Flags: MW
HStem: -22 38<238.5 306 238.5 324> 416 36<217.5 240>
VStem: 39 97<139 173 173 221 135 285> 364 96<209 221 221 242 242 290.5 139 295>
LayerCount: 2
Fore
SplineSet
242 452 m 0
 396 452 460 368 460 213 c 0
 460 65 398 -22 250 -22 c 0
 102 -22 39 65 39 213 c 0
 39 357 100 452 242 452 c 0
364 242 m 2
 364 348 358 415 254 415 c 0
 247 415 242 416 238 416 c 0
 197 416 162 394 150 368 c 0
 143 354 140 335 137 304 c 0
 136 294 136 257 136 221 c 2
 136 173 l 2
 136 97 141 48 200 23 c 0
 216 17 227 16 250 16 c 0
 362 16 364 94 364 209 c 2
 364 221 l 1
 364 242 l 2
EndSplineSet
EndChar

StartChar: one
Encoding: 49 49 3
Width: 500
GlyphClass: 2
Flags: MW
HStem: 0 46<107 128 389 410> 364 46<93 116 92 119 93 93>
VStem: 216 85<220 254 254 376 376 376>
LayerCount: 2
Fore
SplineSet
86 403 m 1
 92 410 l 1
 116 410 l 2
 145 411 161 412 182 416 c 0
 218 421 249 432 274 447 c 0
 282 452 283 453 288 453 c 0
 295 453 297 450 301 447 c 1
 301 254 l 2
 301 110 302 61 303 60 c 0
 305 56 309 52 313 51 c 0
 323 48 357 46 394 46 c 0
 426 46 426 46 426 23 c 0
 426 3 426 0 411 0 c 0
 367 0 326 2 258 2 c 0
 190 2 150 0 106 0 c 0
 91 0 91 3 91 23 c 0
 91 46 91 46 123 46 c 0
 160 46 194 48 204 51 c 0
 208 53 213 57 215 61 c 0
 216 63 216 90 216 220 c 2
 216 376 l 1
 195 367 157 365 119 364 c 2
 93 364 l 1
 86 371 l 1
 86 403 l 1
EndSplineSet
EndChar

StartChar: two
Encoding: 50 50 4
Width: 500
GlyphClass: 2
Flags: MW
HStem: 0 83<223.5 233 233 267 223.5 414> 407 46<191.5 245.5>
VStem: 55 91<320.5 340.5 319 375.5> 347 101<301.5 311.5 301.5 336.5> 406 43
LayerCount: 2
Fore
SplineSet
55 334 m 0xf0
 55 417 147 453 236 453 c 0
 344 453 428 415 447 331 c 0
 448 325 448 316 448 307 c 0xf0
 448 296 448 286 446 280 c 0
 431 222 379 199 316 170 c 0
 300 162 282 154 277 151 c 0
 269 147 163 86 163 84 c 0
 163 83 180 83 267 83 c 0
 326 84 377 84 382 85 c 2
 391 85 l 1
 398 96 400 103 406 126 c 0
 411 148 411 148 429 148 c 0
 446 148 445 147 449 139 c 0xe8
 449 137 422 9 420 7 c 0
 420 4 416 2 414 0 c 2
 233 0 l 2
 35 0 49 0 46 6 c 0
 44 8 44 16 44 24 c 0
 44 32 44 39 46 41 c 0
 48 48 249 176 294 212 c 0
 329 242 347 271 347 304 c 0
 347 369 288 407 203 407 c 0
 169 407 139 396 120 377 c 0
 118 375 118 375 123 373 c 0
 137 366 146 349 146 332 c 0
 146 306 127 288 101 288 c 0
 75 288 55 307 55 334 c 0xf0
EndSplineSet
EndChar

StartChar: three
Encoding: 51 51 5
Width: 500
GlyphClass: 2
Flags: MW
HStem: -216 43<222 248> 125 36<172 175 172 210 172 175> 413 39<226.5 263 226.5 268.5>
VStem: 69 112<296.5 316> 327 103<301 333 301 346> 345 111<-30.5 -19.5 -30.5 -5>
LayerCount: 2
Fore
SplineSet
104 -7 m 0xf4
 138 -7 162 -35 162 -66 c 0
 162 -94 142 -118 118 -125 c 0
 117 -125 113 -126 113 -126 c 2
 113 -130 137 -147 150 -153 c 0
 175 -165 205 -173 239 -173 c 0
 260 -173 276 -168 292 -158 c 0
 329 -134 345 -93 345 -24 c 0xf4
 345 14 339 46 329 67 c 0
 313 97 287 118 257 123 c 0
 251 125 240 125 210 125 c 2
 172 125 l 1
 167 130 166 128 166 142 c 0
 166 155 167 159 172 161 c 0
 178 161 240 168 244 169 c 0
 248 169 255 172 260 175 c 0
 300 195 327 247 327 314 c 0
 327 378 299 413 238 413 c 0
 192 413 156 392 130 369 c 1
 158 361 181 348 181 312 c 0
 181 281 157 257 125 257 c 0
 95 257 69 277 69 312 c 0
 69 320 70 331 72 339 c 0
 84 394 133 435 201 449 c 0
 212 451 220 452 233 452 c 0
 293 452 331 442 368 417 c 0
 408 391 430 353 430 313 c 0xf8
 430 289 424 264 413 242 c 0
 392 201 358 170 311 149 c 2
 301 144 l 2
 302 143 308 142 314 140 c 0
 387 116 439 70 454 4 c 0
 456 -4 456 -14 456 -25 c 0
 456 -36 456 -47 454 -55 c 0
 437 -138 369 -198 277 -214 c 0
 269 -215 255 -216 241 -216 c 0
 157 -216 100 -185 64 -138 c 0
 50 -117 42 -91 42 -68 c 0
 42 -30 65 -7 104 -7 c 0xf4
EndSplineSet
EndChar

StartChar: four
Encoding: 52 52 6
Width: 500
GlyphClass: 2
Flags: MW
HStem: -194 46<199 210 199 228 453 464 453 453> 0 46<93.5 163 163 289 377 464> 444 20G<352 371 371 371>
VStem: 295 82<46 350 350 350>
LayerCount: 2
Fore
SplineSet
193 -154 m 1
 199 -148 l 1
 228 -148 l 2
 262 -147 281 -148 286 -138 c 2
 289 -134 l 1
 289 0 l 1
 163 0 l 2
 24 0 33 0 30 6 c 0
 28 8 28 13 28 27 c 2
 28 46 l 1
 190 270 l 2
 281 396 328 460 330 462 c 0
 333 464 334 464 352 464 c 2
 371 464 l 1
 377 458 l 1
 377 46 l 1
 464 46 l 1
 471 40 l 1
 471 6 l 1
 464 0 l 1
 377 0 l 1
 377 -65 l 2
 377 -107 377 -132 378 -134 c 0
 380 -141 383 -143 391 -144 c 0
 400 -146 424 -148 446 -148 c 2
 464 -148 l 1
 468 -151 l 1
 471 -155 l 1
 471 -187 l 1
 464 -194 l 1
 453 -194 l 2
 424 -193 372 -192 325 -192 c 0
 294 -192 227 -192 210 -194 c 2
 199 -194 l 1
 193 -188 l 1
 193 -154 l 1
295 46 m 1
 295 350 l 1
 75 46 l 1
 295 46 l 1
EndSplineSet
EndChar

StartChar: five
Encoding: 53 53 7
Width: 500
GlyphClass: 2
Flags: MW
HStem: -216 43<221.5 237 199.5 271> -96 109<102 109 102 102> 176 38<243 270.5> 331 92<222 249.5>
VStem: 50 109<-49 -29.5> 93 46<200.5 254 168 303> 351 97<-24.5 30.5 -24.5 47.5>
LayerCount: 2
Fore
SplineSet
159 -44 m 0xfa
 159 -76 136 -94 109 -96 c 2
 102 -96 l 1
 107 -105 l 2
 130 -143 171 -173 228 -173 c 0
 246 -173 264 -169 280 -162 c 0
 338 -133 351 -79 351 8 c 0
 351 87 342 123 316 151 c 0
 298 168 286 176 255 176 c 0
 197 176 160 150 136 109 c 0
 130 101 129 100 114 100 c 0
 100 100 97 101 95 106 c 0
 93 110 93 124 93 277 c 0
 93 329 92 369 92 397 c 0
 92 434 93 451 98 451 c 0
 100 452 101 452 103 452 c 0
 105 452 107 452 110 451 c 0
 151 434 193 423 251 423 c 0
 279 423 290 423 314 428 c 0
 340 432 365 439 388 449 c 0
 395 452 398 453 401 453 c 0
 409 453 410 448 410 435 c 2
 410 422 l 1
 365 369 296 331 203 331 c 0
 181 331 152 333 140 339 c 0
 139 339 139 329 139 254 c 2
 139 168 l 1xf6
 150 177 167 190 182 197 c 0
 205 208 230 214 256 214 c 0
 321 214 369 183 400 143 c 0
 431 105 448 61 448 0 c 0
 448 -49 436 -80 416 -113 c 0
 382 -168 313 -216 229 -216 c 0
 214 -216 198 -214 184 -211 c 0
 112 -190 55 -133 50 -49 c 0
 50 -10 70 13 105 13 c 0
 136 13 159 -9 159 -44 c 0xfa
EndSplineSet
EndChar

StartChar: six
Encoding: 54 54 8
Width: 500
GlyphClass: 2
Flags: MW
HStem: -22 43<247 260> 396 38<241 251 241 241> 626 39<300 316>
VStem: 42 101<356 356 356 376 356 386> 328 104<539.5 556.5> 356 100<183 192 192 210 183 225>
LayerCount: 2
Fore
SplineSet
143 356 m 1xf8
 171 401 205 434 266 434 c 0
 305 434 330 426 357 409 c 0
 386 389 417 353 435 317 c 0
 450 282 456 261 456 210 c 2
 456 192 l 2xf4
 456 174 455 165 451 149 c 0
 443 108 423 73 389 38 c 0
 359 7 330 -10 293 -18 c 0
 281 -21 267 -22 253 -22 c 0
 241 -22 229 -21 219 -19 c 0
 172 -10 129 19 101 61 c 0
 61 124 42 210 42 313 c 0
 42 459 96 569 186 628 c 0
 218 650 255 665 296 665 c 0
 378 665 426 631 432 557 c 0
 432 522 412 498 380 498 c 0
 349 498 328 522 328 550 c 0
 328 563 332 577 342 587 c 0
 348 593 360 599 367 601 c 0
 370 601 372 602 372 602 c 2
 372 604 362 611 355 615 c 0
 342 622 325 626 307 626 c 0
 293 626 279 623 265 619 c 0
 228 607 194 577 174 537 c 0
 154 497 146 452 143 376 c 2
 143 356 l 1xf8
280 395 m 0
 274 396 261 396 251 396 c 2
 241 396 l 1
 178 386 145 307 145 217 c 0
 145 167 150 116 157 95 c 0
 168 56 206 21 252 21 c 0
 282 21 303 30 321 47 c 0
 349 75 356 105 356 203 c 0
 356 247 353 295 351 311 c 0
 343 355 318 386 280 395 c 0
EndSplineSet
EndChar

StartChar: seven
Encoding: 55 55 9
Width: 500
GlyphClass: 2
Flags: MW
HStem: 343 88<274 478> 443 20G<109 121 121 121>
VStem: 170 104<-151 -148>
LayerCount: 2
Fore
SplineSet
75 246 m 0
 58 246 59 247 55 255 c 0
 55 260 88 455 90 458 c 2
 94 462 l 2
 96 462 101 463 109 463 c 2
 121 463 l 2
 124 460 128 457 128 452 c 0
 128 442 139 437 165 434 c 0
 191 432 232 431 356 431 c 2
 478 431 l 1
 485 425 l 1
 485 392 l 1
 414 298 l 2
 376 247 341 200 338 195 c 0
 303 138 284 69 277 -29 c 0
 275 -53 274 -101 274 -137 c 0
 274 -165 274 -173 272 -177 c 0
 266 -201 247 -216 223 -216 c 0
 196 -216 177 -200 171 -177 c 0
 170 -172 170 -167 170 -148 c 0
 173 -48 203 52 258 149 c 0
 312 240 395 337 395 342 c 0
 396 343 377 343 274 343 c 0
 158 342 121 341 117 339 c 0
 113 337 104 306 98 272 c 0
 94 252 94 251 90 248 c 0
 88 246 86 246 75 246 c 0
EndSplineSet
EndChar

StartChar: eight
Encoding: 56 56 10
Width: 500
GlyphClass: 2
Flags: MW
HStem: -21 42<212.5 291 212.5 300> 626 40<221.5 279.5>
VStem: 43 63<149.5 163 118 179> 69 58<483.5 562.5> 371 58<503.5 519.5 496 520.5> 393 63<154 154.5>
LayerCount: 2
Fore
SplineSet
122 616 m 0xd0
 150 644 196 666 247 666 c 0
 341 666 410 613 428 539 c 0
 429 533 429 524 429 515 c 0xd8
 429 477 421 459 405 434 c 0
 387 408 354 382 320 361 c 1
 346 344 l 2
 397 311 414 297 439 250 c 0
 450 225 456 209 456 172 c 2
 456 160 l 2
 456 148 455 141 451 127 c 0
 431 44 354 -21 246 -21 c 0
 140 -21 63 41 45 125 c 0
 43 133 43 144 43 155 c 0xe4
 43 203 57 235 83 265 c 0
 104 290 134 314 167 332 c 2
 176 337 l 1
 161 347 l 2
 139 361 132 366 121 377 c 0
 106 392 95 405 87 423 c 0
 75 446 69 471 69 496 c 0
 69 540 87 584 122 616 c 0xd0
249 626 m 0
 193 626 127 593 127 532 c 0
 127 512 135 491 151 474 c 0
 160 464 165 461 228 420 c 2
 284 384 l 1
 294 391 l 2
 327 412 352 440 363 469 c 0
 370 484 371 494 371 513 c 0
 371 528 371 531 369 539 c 0
 356 589 310 626 249 626 c 0
250 21 m 0
 332 21 393 77 393 140 c 0
 393 169 382 191 362 213 c 0
 343 232 212 313 212 313 c 2
 211 313 193 302 184 295 c 0
 148 269 121 232 111 194 c 0
 108 181 106 169 106 157 c 0xe4
 106 79 175 21 250 21 c 0
EndSplineSet
EndChar

StartChar: nine
Encoding: 57 57 11
Width: 500
GlyphClass: 2
Flags: MW
HStem: -216 43<185 230> 9 37<225.5 255.5 224 258> 412 40<232.5 237 221.5 261.5>
VStem: 42 101<214 250.5> 67 64<-154.5 -87> 356 101<79 86 86 86>
LayerCount: 2
Fore
SplineSet
119 -49 m 0xec
 150 -49 171 -74 171 -101 c 0
 171 -114 167 -128 157 -138 c 0
 152 -143 138 -151 134 -151 c 0
 132 -151 131 -151 131 -152 c 0xec
 131 -157 164 -173 206 -173 c 0
 260 -173 292 -145 317 -108 c 0
 342 -70 356 -3 356 79 c 2
 356 86 l 1
 350 77 l 2
 323 34 285 9 231 9 c 0
 220 9 208 10 201 11 c 0
 159 19 124 41 92 81 c 0
 57 123 42 169 42 228 c 0xf4
 42 273 48 300 64 333 c 0
 84 371 123 412 160 431 c 0
 182 443 208 452 235 452 c 0
 239 452 247 453 255 453 c 0
 263 453 272 452 276 452 c 0
 383 438 437 334 451 219 c 0
 455 192 457 159 457 128 c 0
 457 -12 405 -123 320 -180 c 0
 287 -201 254 -216 206 -216 c 0
 130 -216 67 -177 67 -104 c 0
 67 -70 90 -49 119 -49 c 0xec
303 397 m 0
 287 409 275 412 248 412 c 0
 217 412 196 402 179 386 c 0
 144 349 143 306 143 224 c 0xf4
 143 204 143 185 144 173 c 0
 146 126 151 107 163 88 c 0
 181 60 206 46 242 46 c 0
 269 46 289 54 308 74 c 0
 338 104 355 157 355 223 c 0
 355 288 347 337 337 356 c 0
 330 372 316 388 303 397 c 0
EndSplineSet
EndChar

StartChar: A
Encoding: 65 65 12
Width: 798
GlyphClass: 2
Flags: MW
HStem: -50 107<138 138.5> 163 69<460 586 393 591 460 460> 164 60<329 371> 708 20G<643.5 665.5>
VStem: 30 57 574 101<520 571 571 581 581 581>
LayerCount: 2
Fore
SplineSet
30 43 m 0xbc
 30 83 58 125 74 125 c 0
 83 125 85 117 87 106 c 0
 90 77 125 57 151 57 c 0
 156 57 160 57 164 59 c 0
 190 70 224 107 277 182 c 0
 379 325 468 473 542 625 c 2
 559 659 l 1
 567 659 l 2
 576 659 576 659 576 668 c 0
 576 673 577 676 578 680 c 0
 588 700 627 728 660 728 c 0
 671 728 676 723 675 712 c 2
 675 571 l 2
 675 465 679 361 688 252 c 0
 692 189 697 155 706 113 c 0
 710 97 718 63 720 57 c 0
 725 45 732 43 743 39 c 1
 754 45 l 2
 775 55 791 61 803 61 c 0
 814 61 819 57 819 47 c 0
 818 43 817 41 814 35 c 0
 804 21 792 13 761 -4 c 0
 738 -16 727 -20 713 -24 c 0
 701 -28 686 -30 675 -30 c 0
 654 -30 635 -19 627 -6 c 0
 623 0 621 7 614 34 c 0
 605 70 598 105 594 139 c 0
 593 149 592 158 591 160 c 2
 591 163 l 1
 460 163 l 1xdc
 329 164 l 1
 316 145 l 2
 299 120 279 91 266 75 c 0
 204 -9 158 -50 119 -50 c 0
 75 -50 30 -12 30 43 c 0xbc
584 249 m 1
 579 339 577 420 574 520 c 2
 574 581 l 1
 563 560 l 2
 521 475 465 375 412 290 c 2
 372 228 l 1
 370 224 l 1
 371 224 l 2xbc
 372 224 377 226 383 228 c 2
 393 232 l 1
 586 232 l 1
 584 249 l 1
EndSplineSet
EndChar

StartChar: B
Encoding: 66 66 13
Width: 657
GlyphClass: 2
Flags: MW
HStem: -22 69<257 384> 594 50 636 68<469 572>
VStem: 191 87<573.5 615.5> 191 104<614.5 696.5> 526 101<198 283.5 210 283.5> 563 101<555 604 562 604>
LayerCount: 2
Fore
SplineSet
305 342 m 0xa4
 296 342 292 347 292 353 c 0
 292 367 314 385 323 391 c 0
 335 399 342 402 381 415 c 0
 400 422 422 430 429 432 c 0
 479 451 515 470 533 487 c 0
 550 502 563 523 563 555 c 2
 563 562 l 2
 563 573 561 580 556 590 c 0
 542 618 514 633 475 636 c 0xa2
 463 636 445 634 432 630 c 0
 396 620 365 592 330 539 c 0
 315 518 308 505 296 480 c 0
 262 414 236 340 210 238 c 0
 198 190 187 158 173 120 c 0
 155 78 131 27 121 16 c 0
 104 -4 67 -22 47 -22 c 0
 38 -22 32 -18 32 -10 c 0
 32 -5 36 3 42 16 c 0
 75 81 95 136 112 206 c 0
 144 334 169 460 187 585 c 0
 189 601 191 614 191 615 c 0
 191 616 191 616 190 616 c 0
 184 616 159 597 131 594 c 0
 120 594 113 598 113 606 c 0
 113 621 130 635 144 644 c 0
 152 650 245 697 255 700 c 0
 258 701 263 703 267 703 c 0
 272 704 275 705 279 705 c 0
 289 705 295 700 295 693 c 0xca
 295 685 281 586 278 575 c 0
 278 572 280 574 287 582 c 0
 348 648 425 691 507 703 c 0
 515 704 528 704 540 704 c 0
 604 704 646 677 661 626 c 0
 663 619 664 609 664 599 c 0xb2
 664 592 663 584 662 579 c 0
 656 554 647 534 630 511 c 0
 596 471 555 441 504 413 c 1
 491 407 l 1
 504 402 l 2
 574 379 627 323 627 244 c 0
 627 224 623 201 616 180 c 0
 584 84 461 -2 331 -19 c 0
 318 -21 299 -22 284 -22 c 0
 230 -22 190 -4 158 28 c 0
 145 41 144 43 146 50 c 0
 152 73 200 103 230 103 c 0
 236 103 239 101 251 89 c 0
 276 64 311 47 357 47 c 0
 411 47 457 67 486 93 c 0
 511 119 526 148 526 198 c 2
 526 210 l 2
 526 222 525 229 521 241 c 0
 510 273 489 301 458 319 c 0
 429 336 389 345 350 345 c 0
 339 345 317 342 305 342 c 0xa4
EndSplineSet
EndChar

StartChar: C
Encoding: 67 67 14
Width: 527
GlyphClass: 2
Flags: MW
HStem: -25 69<218 248.5> 636 68<363 433>
VStem: 12 100<189.5 221.5> 433 100<589 662.5>
LayerCount: 2
Fore
SplineSet
481 171 m 0
 490 171 496 167 496 160 c 0
 496 153 490 142 476 123 c 0
 409 33 296 -25 201 -25 c 0
 154 -25 116 -10 88 12 c 0
 39 48 12 116 12 202 c 0
 12 241 18 283 29 326 c 0
 55 427 99 510 161 574 c 0
 231 646 326 694 418 703 c 0
 424 704 431 704 433 704 c 0
 435 705 446 705 457 705 c 0
 503 703 533 685 533 640 c 0
 533 634 532 628 531 620 c 0
 527 595 508 548 485 506 c 0
 468 473 453 459 419 448 c 0
 411 446 403 444 396 444 c 0
 387 444 384 446 381 452 c 0
 379 457 381 460 390 478 c 0
 403 502 420 540 428 563 c 0
 431 573 433 584 433 594 c 0
 433 626 415 636 381 636 c 0
 345 636 315 627 289 615 c 0
 240 590 193 532 159 456 c 0
 128 385 112 311 112 247 c 0
 112 132 163 44 273 44 c 0
 321 44 364 70 398 121 c 0
 414 145 449 171 481 171 c 0
EndSplineSet
EndChar

StartChar: D
Encoding: 68 68 15
Width: 771
GlyphClass: 2
Flags: MW
HStem: 0 69<121.5 265> 614 69<389.5 418>
VStem: 665 101<392 494.5 438.5 453>
LayerCount: 2
Fore
SplineSet
37 475 m 0
 26 475 19 479 19 487 c 0
 19 491 21 495 22 502 c 0
 51 594 184 673 327 682 c 0
 335 682 371 683 408 683 c 0
 529 683 594 676 667 633 c 0
 728 595 766 539 766 450 c 0
 766 427 763 402 757 375 c 0
 736 284 678 201 586 132 c 0
 498 66 390 21 279 6 c 0
 247 1 239 1 160 0 c 0
 83 0 83 0 79 2 c 0
 74 5 72 8 72 12 c 0
 72 20 81 31 88 37 c 0
 100 49 116 59 133 64 c 2
 144 68 l 1
 152 88 l 2
 215 247 256 420 272 587 c 0
 275 616 275 614 269 613 c 0
 192 608 138 592 119 532 c 0
 117 527 114 521 113 518 c 0
 98 497 64 478 37 475 c 0
665 407 m 2
 665 499 621 547 558 580 c 0
 513 600 453 614 383 614 c 0
 371 614 370 614 370 612 c 0
 370 603 361 540 355 502 c 0
 332 368 295 236 242 103 c 2
 228 69 l 1
 265 69 l 2
 356 71 416 87 481 119 c 0
 577 169 641 249 660 347 c 0
 664 366 665 376 665 392 c 2
 665 407 l 2
EndSplineSet
EndChar

StartChar: E
Encoding: 69 69 16
Width: 528
GlyphClass: 2
Flags: MW
HStem: -22 69<227 248.5> 341 69 636 69<349.5 475>
VStem: 30 100<67 159.5> 144 101<446 526.5> 463 101<585 642>
LayerCount: 2
Fore
SplineSet
223 362 m 1
 174 387 144 422 144 470 c 0
 144 507 158 539 176 564 c 0
 225 637 327 695 424 704 c 0
 431 704 441 705 451 705 c 0
 499 705 543 695 557 664 c 0
 562 655 564 647 564 637 c 0
 564 613 551 590 540 573 c 0
 525 554 487 534 464 534 c 0
 454 534 448 538 448 545 c 0
 448 549 450 555 455 562 c 0
 462 575 463 579 463 591 c 0
 463 631 419 636 380 636 c 0
 319 636 278 610 258 568 c 0
 247 548 245 537 245 516 c 0
 245 478 264 455 288 439 c 0
 313 423 351 412 391 410 c 0
 406 410 415 409 415 398 c 0
 415 392 410 383 400 374 c 0
 381 355 360 343 326 341 c 0
 300 340 280 336 260 327 c 0
 210 308 166 263 144 209 c 0
 134 185 130 168 130 151 c 0
 130 90 186 47 268 47 c 0
 321 47 368 74 403 125 c 0
 416 146 455 171 483 171 c 0
 492 171 499 167 499 160 c 0
 499 154 494 145 483 130 c 0
 415 39 300 -22 197 -22 c 0
 107 -22 30 29 30 105 c 0
 30 135 39 161 51 186 c 0
 79 250 137 311 209 354 c 2
 223 362 l 1
EndSplineSet
EndChar

StartChar: F
Encoding: 70 70 17
Width: 719
GlyphClass: 2
Flags: MW
HStem: -32 69<105 197> 285 80<593 611> 296 69<551 582> 580 103 614 69<500 561 502 561 502 598>
LayerCount: 2
Fore
SplineSet
269 614 m 1xa8
 248 596 225 580 197 580 c 0x90
 187 580 181 584 181 591 c 0
 181 595 183 600 186 607 c 0
 208 649 268 677 335 682 c 0
 341 682 443 683 561 683 c 0x88
 753 682 775 682 784 681 c 0
 812 676 827 665 829 647 c 0
 829 609 773 580 744 580 c 0x90
 733 580 728 585 728 595 c 0
 729 604 728 606 719 608 c 0
 702 613 701 613 598 614 c 2
 500 614 l 1
 499 610 l 2
 499 608 495 593 491 577 c 0
 477 518 462 467 442 406 c 0
 435 385 429 368 428 367 c 0
 428 365 434 365 551 365 c 2
 674 365 l 2xa8
 679 362 683 361 684 355 c 0
 685 352 680 334 677 329 c 0
 663 307 624 285 598 285 c 0xc0
 588 285 585 288 582 296 c 1
 402 296 l 1
 399 290 l 1
 371 220 326 110 286 51 c 0
 256 11 207 -21 160 -31 c 0
 154 -32 143 -32 133 -32 c 0
 77 -32 41 -6 22 32 c 0
 19 38 18 43 18 47 c 0
 18 53 21 59 29 67 c 0
 47 86 75 101 98 103 c 0
 113 103 113 101 119 88 c 0
 130 66 148 49 171 42 c 0
 180 39 191 37 195 37 c 0
 199 37 199 37 203 43 c 0
 209 53 240 114 261 161 c 0
 317 285 360 408 391 532 c 0
 397 560 409 611 409 613 c 0
 409 614 377 614 339 614 c 2
 269 614 l 1xa8
EndSplineSet
EndChar

StartChar: G
Encoding: 71 71 18
Width: 595
GlyphClass: 2
Flags: MW
HStem: -119 70<204 289> -87 73 68 69<237.5 273> 636 68<376.5 475>
VStem: 44 100<267.5 290.5> 499 100<587.5 637>
LayerCount: 2
Fore
SplineSet
144 318 m 2xbc
 144 217 188 137 287 137 c 0
 313 137 337 145 359 160 c 0
 396 184 430 228 451 278 c 0
 456 289 461 306 466 322 c 0
 472 343 517 376 551 376 c 0
 559 376 565 370 565 365 c 0
 565 361 550 300 539 260 c 0
 510 155 484 86 451 31 c 0
 406 -43 343 -93 269 -112 c 0
 247 -118 231 -119 204 -119 c 0xbc
 152 -117 112 -108 69 -87 c 0
 56 -81 52 -80 52 -71 c 0
 52 -65 56 -57 65 -47 c 0
 84 -29 110 -16 132 -14 c 2
 140 -14 l 1x7c
 151 -19 l 2
 190 -39 236 -49 281 -49 c 2
 289 -49 l 2
 309 -49 316 -45 329 -31 c 0
 353 -5 376 36 398 92 c 0
 405 109 416 141 416 142 c 2
 416 142 330 68 216 68 c 0
 164 68 129 84 101 112 c 0
 65 147 44 205 44 273 c 0
 44 308 48 334 57 369 c 0
 95 524 212 652 373 692 c 0
 399 699 429 704 466 704 c 0
 484 704 508 704 515 703 c 0
 568 694 591 679 598 647 c 0
 599 643 599 639 599 635 c 0
 599 594 544 517 523 496 c 0
 507 481 483 466 455 466 c 0
 444 466 440 470 440 476 c 0
 440 484 447 495 453 502 c 0
 472 526 495 566 498 580 c 0
 499 583 499 586 499 589 c 0
 499 599 495 610 489 617 c 0
 470 632 437 636 403 636 c 0
 350 636 311 624 279 602 c 0
 209 556 150 446 144 327 c 1
 144 318 l 2xbc
EndSplineSet
EndChar

StartChar: H
Encoding: 72 72 19
Width: 845
GlyphClass: 2
Flags: MW
HStem: -48 68<578.5 663.5> 273 59 273 69<169.5 236> 613 70<266 268>
VStem: 300 100<552 626> 522 99<13 60 23 60>
LayerCount: 2
Fore
SplineSet
37 475 m 0xbc
 27 475 18 479 18 487 c 0
 18 498 32 521 45 539 c 0
 100 619 202 683 330 683 c 0
 362 683 384 671 393 649 c 0
 397 641 400 630 400 622 c 0
 400 613 395 569 391 540 c 0
 383 480 365 394 348 343 c 0
 348 342 365 342 467 342 c 2
 587 342 l 1
 594 366 l 2
 623 466 679 625 690 641 c 0
 704 661 739 681 764 683 c 0
 774 683 783 681 783 672 c 0
 783 668 780 661 774 645 c 0
 738 550 702 439 675 341 c 0
 647 240 633 173 625 101 c 0
 623 77 621 64 621 56 c 0
 621 32 634 20 658 20 c 0
 669 20 687 23 701 25 c 1
 705 38 708 45 718 55 c 0
 735 72 760 84 782 87 c 0
 795 88 803 85 803 75 c 0
 803 71 797 55 792 46 c 0
 761 -9 679 -48 588 -48 c 0
 569 -48 568 -48 562 -46 c 0
 535 -35 522 -18 522 13 c 2
 522 23 l 1
 528 93 541 168 562 250 c 2
 569 281 l 2
 567 279 553 275 549 274 c 2
 438 273 l 1xbc
 328 273 l 1xdc
 321 249 l 2
 305 195 279 118 258 62 c 0
 241 16 236 5 232 0 c 0
 215 -22 179 -41 155 -41 c 0
 147 -41 139 -37 139 -29 c 0
 139 -26 143 -18 159 26 c 0
 187 99 210 170 233 247 c 0
 237 260 240 271 240 272 c 0
 240 273 228 273 194 273 c 0xbc
 145 273 146 273 141 279 c 0
 140 281 139 283 139 285 c 0
 139 298 160 319 187 332 c 0xdc
 204 340 208 341 236 342 c 2
 260 343 l 1
 264 359 l 2
 278 413 300 526 300 578 c 0
 300 603 282 613 254 613 c 0
 220 613 187 605 169 592 c 0
 150 580 134 559 119 531 c 0
 113 519 112 517 104 508 c 0
 85 490 60 477 37 475 c 0xbc
EndSplineSet
EndChar

StartChar: I
Encoding: 73 73 20
Width: 545
GlyphClass: 2
Flags: MW
HStem: 0 69<87.5 330> 614 69<444 632 481 507>
LayerCount: 2
Fore
SplineSet
330 69 m 2
 416 70 442 68 442 74 c 1
 446 74 440 83 460 105 c 0
 478 122 505 135 527 137 c 0
 538 137 545 134 545 125 c 0
 545 122 544 117 542 112 c 0
 527 67 466 23 399 7 c 0
 372 0 387 1 174 0 c 0
 1 0 -20 0 -23 1 c 0
 -28 4 -30 7 -30 12 c 0
 -30 18 -26 27 -17 36 c 0
 -2 50 18 63 42 68 c 1
 155 70 l 1
 171 86 184 106 198 138 c 0
 216 180 229 222 256 329 c 0
 275 406 285 439 298 478 c 0
 317 535 342 584 366 610 c 2
 369 614 l 1
 305 614 l 2
 270 613 235 613 228 612 c 0
 191 609 161 604 146 597 c 0
 139 594 134 586 128 569 c 0
 124 557 121 552 112 543 c 0
 94 526 67 514 47 512 c 0
 34 512 28 515 28 523 c 0
 28 527 29 532 32 539 c 0
 47 586 94 629 159 654 c 0
 199 670 248 679 312 682 c 0
 321 682 398 683 481 683 c 2
 632 683 l 2
 637 680 642 677 642 671 c 0
 642 668 641 665 639 661 c 0
 631 645 602 625 577 617 c 0
 570 615 569 615 507 614 c 2
 444 614 l 1
 432 599 418 570 406 542 c 0
 390 499 378 460 354 364 c 0
 333 281 323 244 310 209 c 0
 290 152 267 109 238 78 c 2
 230 69 l 1
 330 69 l 2
EndSplineSet
EndChar

StartChar: J
Encoding: 74 74 21
Width: 678
GlyphClass: 2
Flags: MW
HStem: -119 69<176.5 300> 614 69<591 830 746.5 768.5>
VStem: 47 101<37.5 50>
LayerCount: 2
Fore
SplineSet
830 683 m 1
 834 679 839 676 839 671 c 0
 839 669 839 666 837 663 c 0
 826 639 783 614 754 614 c 0
 739 614 732 611 721 601 c 0
 687 570 650 499 618 404 c 0
 599 348 583 295 557 192 c 0
 551 165 543 138 541 132 c 0
 528 92 505 51 475 16 c 0
 417 -54 332 -104 253 -116 c 0
 240 -118 227 -119 213 -119 c 0
 140 -119 87 -84 62 -35 c 0
 54 -16 47 6 47 33 c 0
 47 67 51 86 71 103 c 0
 90 119 112 129 132 131 c 0
 143 132 152 128 152 120 c 0
 152 119 151 113 150 108 c 0
 148 100 148 89 148 78 c 0
 148 -3 206 -50 286 -50 c 0
 314 -50 333 -43 353 -29 c 0
 392 -3 427 47 444 101 c 0
 446 107 453 133 460 159 c 0
 505 341 554 512 649 605 c 1
 659 614 l 1
 591 614 l 2
 517 613 517 613 494 607 c 0
 434 592 389 552 366 495 c 0
 364 490 361 482 360 477 c 0
 356 463 349 454 334 443 c 0
 315 428 290 419 275 419 c 0
 263 419 257 425 260 435 c 0
 264 453 274 479 288 501 c 0
 344 595 466 670 583 681 c 0
 593 682 626 683 713 683 c 2
 830 683 l 1
EndSplineSet
EndChar

StartChar: K
Encoding: 75 75 22
Width: 762
GlyphClass: 2
Flags: MW
HStem: -22 58<538 552> 594 50 647 58
VStem: 32 96 256 75<397 437.5> 657 75<604 663.5 626.5 627.5>
LayerCount: 2
Fore
SplineSet
267 703 m 0
 272 704 275 705 279 705 c 0
 289 705 295 701 295 691 c 0
 295 677 292 632 289 604 c 0
 281 535 270 474 250 397 c 0
 224 301 194 202 159 105 c 0
 146 71 131 30 128 25 c 0
 117 3 74 -22 47 -22 c 0
 38 -22 32 -16 32 -10 c 0
 32 -5 36 5 42 21 c 0
 78 114 109 210 136 306 c 0
 163 401 176 463 185 530 c 0
 190 562 195 616 194 618 c 0
 193 618 185 614 174 609 c 0
 154 599 143 595 131 594 c 0
 120 594 113 598 113 606 c 0
 113 621 130 635 144 644 c 0
 152 650 245 697 255 700 c 0
 258 701 263 703 267 703 c 0
677 586 m 0
 662 586 655 592 657 604 c 2
 657 619 l 2
 657 636 645 647 629 647 c 0
 626 647 623 647 620 646 c 0
 561 631 429 546 365 482 c 0
 339 456 331 446 331 429 c 0
 331 408 340 365 354 322 c 0
 397 189 470 65 519 41 c 0
 528 37 534 36 542 36 c 0
 597 36 640 60 652 103 c 0
 660 125 683 143 709 143 c 0
 722 143 727 137 727 128 c 0
 727 123 726 118 723 111 c 0
 698 39 607 -22 497 -22 c 0
 490 -22 484 -22 481 -21 c 0
 442 -9 406 32 382 71 c 0
 329 147 264 310 257 386 c 0
 257 391 256 395 256 399 c 0
 256 425 265 445 288 473 c 0
 345 543 495 648 595 688 c 0
 621 698 637 705 670 705 c 0
 707 703 732 683 732 644 c 0
 732 609 709 589 677 586 c 0
EndSplineSet
EndChar

StartChar: L
Encoding: 76 76 23
Width: 690
GlyphClass: 2
Flags: MW
HStem: -22 74<424.5 523> 630 75<442.5 553.5>
VStem: 507 111<552 611>
LayerCount: 2
Fore
SplineSet
503 519 m 0
 503 531 507 544 507 560 c 0
 507 601 490 630 452 630 c 0
 433 630 421 627 410 617 c 0
 380 590 348 534 322 464 c 0
 304 415 289 366 267 280 c 0
 254 228 246 202 233 170 c 0
 226 155 211 123 204 112 c 2
 198 103 l 1
 224 102 l 2
 269 102 294 98 370 78 c 0
 444 59 471 54 509 52 c 2
 523 52 l 1
 532 61 538 70 544 87 c 0
 550 105 558 114 579 128 c 0
 602 143 626 152 641 152 c 0
 649 152 656 149 656 142 c 0
 656 139 655 136 653 128 c 0
 632 65 552 -1 471 -19 c 0
 461 -21 448 -22 433 -22 c 0
 416 -22 397 -21 379 -18 c 0
 352 -14 341 -12 255 10 c 0
 215 21 185 26 156 28 c 2
 141 29 l 1
 131 20 l 2
 112 1 73 -22 47 -22 c 0
 38 -22 32 -19 32 -11 c 0
 32 -8 33 -6 34 -3 c 0
 38 5 49 18 63 32 c 0
 116 85 133 145 157 236 c 0
 191 367 214 434 247 499 c 0
 270 545 293 578 323 609 c 0
 377 662 447 698 513 704 c 0
 517 704 524 705 531 705 c 0
 576 705 599 688 612 654 c 0
 617 642 618 636 618 623 c 2
 618 611 l 2
 618 577 616 565 598 548 c 0
 575 525 538 509 518 509 c 0
 507 509 503 511 503 519 c 0
EndSplineSet
EndChar

StartChar: M
Encoding: 77 77 24
Width: 1201
GlyphClass: 2
Flags: MW
HStem: -50 107 685 20G<419 433.5 1098.5 1104.5>
VStem: 355 98 941 100<128.5 166.5>
LayerCount: 2
Fore
SplineSet
941 96 m 0
 941 237 986 489 985 489 c 0
 982 489 815 288 698 164 c 0
 653 116 577 42 568 37 c 0
 565 35 562 34 558 34 c 0
 548 34 545 36 535 54 c 0
 507 100 485 148 468 199 c 0
 431 307 384 518 384 518 c 1
 358 407 333 326 291 217 c 0
 252 114 225 57 198 15 c 0
 174 -21 150 -43 128 -49 c 0
 125 -50 121 -50 117 -50 c 0
 81 -50 38 -26 30 -6 c 0
 29 -2 28 3 28 9 c 0
 28 40 44 69 58 83 c 0
 64 88 68 90 73 90 c 0
 78 90 78 90 83 84 c 0
 95 71 116 61 141 57 c 0
 150 56 154 56 161 61 c 0
 193 82 242 215 265 280 c 0
 308 398 338 516 355 635 c 0
 360 663 361 667 371 677 c 0
 385 693 406 705 432 705 c 0
 435 705 437 705 439 704 c 0
 446 700 446 700 453 659 c 0
 476 533 504 414 539 294 c 0
 550 255 558 232 568 207 c 0
 575 188 592 150 594 150 c 0
 596 150 667 220 693 248 c 0
 774 334 924 507 1056 664 c 0
 1072 683 1086 700 1089 701 c 0
 1092 704 1097 705 1100 705 c 0
 1109 705 1111 694 1111 682 c 0
 1111 673 1110 661 1106 649 c 0
 1104 639 1094 590 1086 540 c 0
 1060 388 1041 217 1041 144 c 0
 1041 113 1044 64 1047 55 c 0
 1050 46 1054 42 1061 42 c 0
 1065 42 1069 43 1075 46 c 0
 1082 51 1107 62 1123 62 c 0
 1131 62 1137 59 1137 50 c 0
 1137 41 1129 30 1116 19 c 0
 1106 11 1104 9 1081 -3 c 0
 1050 -19 1035 -24 1015 -28 c 0
 1010 -29 1005 -29 1000 -29 c 0
 982 -29 969 -24 959 -14 c 0
 949 -4 946 4 943 39 c 0
 942 54 941 76 941 96 c 0
EndSplineSet
EndChar

StartChar: N
Encoding: 78 78 25
Width: 820
GlyphClass: 2
Flags: MW
HStem: -50 107 683 106<924 967.5> 685 20G<329.5 346>
LayerCount: 2
Fore
SplineSet
343 705 m 0xa0
 349 705 358 703 358 698 c 0
 359 697 363 686 366 674 c 0
 399 558 442 430 484 319 c 0
 523 213 542 165 590 82 c 2
 595 73 l 1
 615 152 l 2
 640 251 657 314 683 407 c 0
 744 627 769 695 799 727 c 0
 832 760 879 782 937 788 c 0
 942 788 952 789 958 789 c 0
 977 789 979 782 979 765 c 0
 979 742 968 710 951 692 c 0
 943 684 941 683 924 683 c 0xc0
 889 681 858 674 834 662 c 0
 820 655 805 644 803 639 c 0
 800 634 788 600 780 575 c 0
 756 498 717 359 685 237 c 0
 669 175 631 20 631 15 c 0
 631 14 631 14 630 15 c 0
 630 17 629 16 628 12 c 0
 620 -6 592 -31 560 -31 c 0
 547 -31 546 -31 530 -7 c 0
 467 93 450 131 398 272 c 0
 371 342 335 446 314 514 c 0
 307 536 306 538 306 534 c 0
 305 532 302 517 299 500 c 0
 277 388 247 276 208 163 c 0
 173 61 145 6 111 -26 c 0
 94 -42 79 -50 61 -50 c 0
 21 -50 -27 -25 -27 8 c 0
 -27 31 -14 66 3 83 c 0
 10 89 12 90 18 90 c 0
 22 90 23 89 28 84 c 0
 42 70 63 61 87 57 c 0
 97 56 101 56 108 61 c 0
 123 71 138 102 162 173 c 0
 216 328 251 478 268 627 c 0
 272 658 273 661 276 667 c 0
 286 684 316 705 343 705 c 0xa0
EndSplineSet
EndChar

StartChar: O
Encoding: 79 79 26
Width: 796
GlyphClass: 2
Flags: MW
HStem: -22 70<272.5 387.5> 636 69
VStem: 58 100<242.5 253> 677 100<460 493.5>
LayerCount: 2
Fore
SplineSet
599 705 m 0
 722 705 777 609 777 483 c 0
 777 437 768 380 753 334 c 0
 707 188 580 58 430 3 c 0
 384 -14 338 -22 293 -22 c 0
 252 -22 222 -15 191 0 c 0
 109 38 58 122 58 245 c 0
 58 261 58 277 59 286 c 0
 67 356 85 414 118 471 c 0
 166 556 238 627 329 682 c 0
 351 696 364 701 377 704 c 0
 381 704 384 705 388 705 c 0
 398 705 404 700 404 693 c 0
 404 690 403 687 401 683 c 0
 395 672 383 661 363 649 c 0
 257 587 175 474 159 331 c 0
 158 322 158 306 158 290 c 0
 158 195 190 126 244 85 c 0
 275 62 311 48 364 48 c 0
 411 48 439 57 474 74 c 0
 553 113 625 203 656 302 c 0
 669 344 677 394 677 438 c 0
 677 549 635 636 528 636 c 0
 498 636 487 628 466 607 c 0
 438 579 413 540 392 490 c 0
 384 472 381 468 372 459 c 0
 355 443 328 429 308 428 c 0
 298 428 294 429 290 433 c 0
 287 438 288 443 296 462 c 0
 317 512 345 556 378 593 c 0
 429 652 499 692 566 703 c 0
 576 704 587 705 599 705 c 0
EndSplineSet
EndChar

StartChar: P
Encoding: 80 80 27
Width: 696
GlyphClass: 2
Flags: MW
HStem: 205 69 614 69<370 442.5 370 442.5>
VStem: 633 100<465 531.5>
LayerCount: 2
Fore
SplineSet
37 475 m 0
 26 475 19 479 19 487 c 0
 19 491 21 495 22 502 c 0
 51 594 184 673 327 682 c 0
 335 682 378 683 421 683 c 0
 464 683 507 682 515 682 c 0
 593 677 656 653 695 615 c 0
 711 598 720 584 726 564 c 0
 731 552 733 538 733 525 c 0
 733 518 732 511 731 504 c 0
 725 460 704 415 669 372 c 0
 659 360 633 333 620 322 c 0
 537 252 426 209 321 205 c 0
 302 205 299 205 295 211 c 0
 294 213 293 215 293 217 c 0
 293 230 312 251 340 264 c 0
 356 271 362 273 385 274 c 0
 496 282 577 328 614 407 c 0
 627 432 633 453 633 477 c 0
 633 508 621 536 597 558 c 0
 558 594 487 614 399 614 c 2
 370 614 l 1
 368 603 l 1
 351 450 310 276 254 118 c 0
 235 65 208 -4 202 -13 c 0
 189 -35 152 -57 121 -57 c 0
 114 -57 108 -50 108 -45 c 0
 108 -43 113 -27 121 -7 c 0
 196 179 243 357 266 539 c 0
 268 558 274 610 274 613 c 2
 274 613 272 614 269 613 c 0
 192 608 138 592 119 532 c 0
 117 527 114 521 113 518 c 0
 98 497 64 478 37 475 c 0
EndSplineSet
EndChar

StartChar: Q
Encoding: 81 81 28
Width: 817
GlyphClass: 2
Flags: MW
HStem: -131 69<550.5 652> -34 68<140.5 200> 102 70<271.5 376> 636 69<546.5 547>
VStem: 114 100<308.5 322.5> 675 99<452 478>
LayerCount: 2
Fore
SplineSet
675 416 m 0
 675 540 610 636 484 636 c 0
 416 636 365 609 315 559 c 0
 270 514 237 456 222 397 c 0
 216 375 214 354 214 333 c 0
 214 284 229 239 259 209 c 0
 286 183 317 172 360 172 c 0
 392 172 419 178 453 193 c 0
 472 202 479 204 490 205 c 0
 503 205 510 203 510 192 c 0
 509 185 505 179 497 171 c 0
 458 129 351 102 287 102 c 0
 256 102 235 106 211 118 c 0
 151 146 114 203 114 286 c 0
 114 359 146 444 201 515 c 0
 275 611 389 682 497 700 c 0
 509 702 535 705 558 705 c 0
 609 705 643 693 678 670 c 0
 739 629 774 562 774 460 c 0
 774 444 774 428 773 418 c 0
 754 266 655 145 545 71 c 0
 474 23 398 -1 399 -2 c 0
 400 -3 456 -23 474 -29 c 0
 538 -51 578 -62 636 -62 c 0
 668 -62 678 -50 687 -23 c 0
 691 -12 693 -8 700 0 c 0
 717 17 744 31 767 34 c 0
 778 35 787 32 787 23 c 0
 787 19 786 15 784 8 c 0
 761 -61 674 -115 602 -128 c 0
 591 -130 578 -131 563 -131 c 0
 538 -131 509 -128 482 -123 c 0
 445 -115 419 -107 333 -76 c 0
 269 -54 231 -43 192 -38 c 0
 175 -36 155 -34 145 -34 c 0
 136 -34 127 -30 127 -22 c 0
 127 -16 132 -7 142 2 c 0
 155 15 171 25 190 31 c 2
 200 34 l 1
 237 35 l 2
 304 36 336 39 376 48 c 0
 410 55 438 64 467 79 c 0
 536 113 597 175 634 246 c 0
 661 301 675 352 675 416 c 0
EndSplineSet
EndChar

StartChar: R
Encoding: 82 82 29
Width: 848
GlyphClass: 2
Flags: MW
HStem: -22 69<586 684.5> 273 69 614 68<386.5 433.5>
VStem: 117 96 630 101<485.5 575.5>
LayerCount: 2
Fore
SplineSet
37 475 m 0
 26 475 19 479 19 487 c 0
 19 491 21 495 22 502 c 0
 45 575 133 641 242 668 c 0
 288 681 313 682 374 682 c 2
 458 682 l 2
 558 682 632 678 686 642 c 0
 716 623 731 594 731 557 c 0
 731 548 730 539 728 529 c 0
 708 420 604 340 504 300 c 1
 504 300 506 296 509 291 c 0
 522 272 535 245 553 202 c 0
 586 123 595 103 611 82 c 0
 628 57 644 47 665 47 c 0
 704 47 723 69 742 93 c 0
 754 108 767 118 786 128 c 0
 798 133 808 136 819 137 c 0
 829 137 837 133 837 125 c 0
 837 112 820 94 807 80 c 0
 765 35 703 -2 645 -16 c 0
 627 -20 605 -22 589 -22 c 0
 583 -22 578 -22 574 -21 c 0
 548 -15 525 6 505 39 c 0
 493 60 483 81 455 148 c 0
 432 205 417 233 399 253 c 0
 387 265 376 271 362 273 c 0
 351 273 346 277 346 287 c 0
 348 301 368 320 394 332 c 0
 409 339 416 341 436 342 c 0
 446 343 457 343 462 344 c 0
 507 350 548 368 577 393 c 0
 607 421 630 460 630 511 c 0
 630 545 618 565 596 579 c 0
 560 603 474 614 393 614 c 0
 380 614 370 614 370 613 c 2
 366 584 l 2
 346 419 304 256 240 91 c 0
 231 68 216 31 213 25 c 0
 202 3 159 -22 132 -22 c 0
 122 -22 115 -15 117 -8 c 0
 117 -6 122 7 128 21 c 0
 208 215 257 411 274 606 c 1
 274 614 l 1
 269 613 l 1
 192 608 138 592 119 532 c 0
 117 527 114 521 113 518 c 0
 98 497 64 478 37 475 c 0
EndSplineSet
EndChar

StartChar: S
Encoding: 83 83 30
Width: 606
GlyphClass: 2
Flags: MW
HStem: -22 70<255.5 260.5> 635 69<378 461.5>
VStem: 18 100<111 170> 191 99<481.5 537> 473 101<174.5 251.5> 542 100<559.5 646>
LayerCount: 2
Fore
SplineSet
489 704 m 0xf8
 560 704 642 682 642 610 c 0
 642 600 640 588 637 575 c 0
 633 559 630 554 621 545 c 0
 603 527 575 514 554 512 c 0
 546 512 545 512 541 514 c 0
 535 519 534 521 538 536 c 0
 541 546 542 555 542 564 c 0xf4
 542 580 537 594 528 604 c 0
 510 620 456 635 410 635 c 0
 346 635 311 608 295 562 c 0
 292 552 290 542 290 532 c 0
 290 504 303 478 327 455 c 0
 347 436 366 424 409 404 c 0
 462 379 491 362 517 340 c 0
 555 309 574 272 574 231 c 0
 574 222 573 213 571 204 c 0
 563 163 543 128 509 93 c 0
 491 76 478 65 456 51 c 0
 387 4 301 -22 220 -22 c 0
 138 -22 78 9 39 60 c 0
 25 78 18 99 18 123 c 0
 18 168 37 203 62 228 c 0
 88 254 124 272 156 274 c 0
 169 274 178 272 178 263 c 0
 178 259 176 252 173 249 c 0
 166 239 148 223 132 216 c 2
 127 213 l 1
 124 202 l 2
 119 189 118 177 118 163 c 0
 119 144 125 131 138 114 c 0
 172 72 219 48 292 48 c 0
 378 48 436 80 460 130 c 0
 471 151 473 163 473 186 c 0
 473 200 473 204 471 211 c 0
 459 255 421 291 347 327 c 0
 282 358 273 363 252 379 c 0
 220 403 200 430 193 461 c 0
 191 467 191 477 191 486 c 0
 191 495 191 504 193 512 c 0
 199 538 211 563 230 587 c 0
 277 646 362 696 461 704 c 0
 462 704 465 705 470 705 c 0
 475 705 482 704 489 704 c 0xf8
EndSplineSet
EndChar

StartChar: T
Encoding: 84 84 31
Width: 545
GlyphClass: 2
Flags: MW
HStem: 609 74<542.5 588> 697 20G<801.5 821>
LayerCount: 2
Fore
SplineSet
742 683 m 1
 763 698 787 717 816 717 c 0
 826 717 833 715 833 708 c 0
 833 700 826 685 817 674 c 0
 795 648 751 623 714 615 c 0
 691 610 691 610 588 609 c 0
 497 609 490 609 490 607 c 0
 489 606 465 509 435 392 c 0
 406 274 380 170 377 160 c 0
 362 107 337 39 314 -8 c 0
 301 -34 271 -54 242 -64 c 0
 234 -67 225 -68 218 -68 c 0
 209 -68 203 -65 203 -57 c 0
 203 -56 206 -47 211 -38 c 0
 233 13 253 67 267 116 c 0
 274 141 380 573 388 592 c 1
 401 609 l 1
 302 609 l 2
 200 609 193 609 180 605 c 0
 159 598 145 564 145 541 c 0
 145 536 144 534 142 529 c 0
 132 511 97 487 70 479 c 0
 62 476 55 474 49 474 c 0
 40 474 34 479 34 490 c 0
 34 513 44 540 61 564 c 0
 102 622 187 672 261 681 c 0
 272 683 302 683 507 683 c 2
 742 683 l 1
EndSplineSet
EndChar

StartChar: U
Encoding: 85 85 32
Width: 626
GlyphClass: 2
Flags: MW
HStem: -22 70<77.5 164.5> 613 70<112 210.5>
VStem: -17 100<68.5 153.5> 146 100<579.5 648.5> 421 100<3.5 68>
LayerCount: 2
Fore
SplineSet
25 580 m 0
 16 580 8 583 8 592 c 0
 8 607 33 629 75 651 c 0
 113 672 147 683 193 683 c 0
 228 683 246 666 246 631 c 0
 246 607 237 573 219 526 c 0
 209 499 198 472 169 406 c 0
 124 304 105 256 93 210 c 0
 86 187 83 164 83 143 c 0
 83 90 103 48 154 48 c 0
 175 48 188 55 211 70 c 0
 306 134 441 307 525 475 c 0
 545 513 551 528 560 553 c 0
 578 604 589 635 593 640 c 0
 607 661 643 681 669 683 c 0
 679 683 687 680 687 672 c 0
 687 669 685 664 683 656 c 0
 678 636 669 610 659 586 c 0
 631 519 579 348 547 220 c 0
 531 158 524 114 521 68 c 0
 521 48 522 47 533 42 c 1
 543 47 l 2
 562 56 577 61 588 61 c 0
 599 61 604 57 604 47 c 0
 599 18 535 -10 506 -22 c 0
 493 -26 479 -28 468 -28 c 0
 439 -28 421 -11 421 18 c 0
 421 87 451 197 468 258 c 0
 468 259 464 254 459 248 c 0
 384 151 309 78 239 33 c 0
 194 5 152 -13 113 -20 c 0
 105 -21 94 -22 83 -22 c 0
 72 -22 62 -21 58 -20 c 0
 10 -6 -17 38 -17 99 c 0
 -17 122 -13 147 -6 174 c 0
 8 224 27 273 76 384 c 0
 113 468 127 504 137 536 c 0
 143 556 146 573 146 586 c 0
 146 608 140 613 120 613 c 0
 104 613 92 609 78 600 c 0
 59 587 39 580 25 580 c 0
EndSplineSet
EndChar

StartChar: V
Encoding: 86 86 33
Width: 613
GlyphClass: 2
Flags: MW
HStem: 577 106 620 63<36.5 123>
VStem: 203 88<259 336.5> 600 58<498 593>
LayerCount: 2
Fore
SplineSet
25 633 m 0x70
 25 653 63 683 100 683 c 0x70
 146 683 175 668 202 643 c 0
 261 588 291 474 291 306 c 0
 291 212 279 102 279 102 c 1
 279 102 306 124 325 141 c 0
 467 267 569 394 596 479 c 0
 599 487 600 494 600 502 c 0
 600 543 565 574 523 577 c 0
 507 577 505 586 505 601 c 0
 505 628 522 669 542 681 c 0
 546 683 547 683 558 683 c 0xb0
 620 678 658 627 658 559 c 0
 658 547 656 534 654 520 c 0
 635 406 558 300 487 215 c 0
 441 162 371 92 311 39 c 0
 268 2 209 -45 196 -51 c 0
 194 -52 192 -52 190 -52 c 0
 180 -52 177 -41 177 -28 c 0
 177 -22 178 -15 179 -8 c 0
 191 49 203 189 203 270 c 0
 203 403 183 503 145 560 c 0
 124 591 103 608 73 615 c 0
 63 618 49 620 41 620 c 0
 32 620 25 624 25 633 c 0x70
EndSplineSet
EndChar

StartChar: W
Encoding: 87 87 34
Width: 988
GlyphClass: 2
Flags: MW
HStem: 620 63<83.5 96>
VStem: 181 88<343 407.5> 976 58<506.5 597>
LayerCount: 2
Fore
SplineSet
25 633 m 0
 25 656 64 683 103 683 c 0
 146 683 183 663 207 632 c 0
 221 616 234 592 243 568 c 0
 260 516 269 447 269 374 c 0
 269 312 264 241 253 168 c 0
 252 158 251 150 251 150 c 2
 251 149 265 167 286 197 c 0
 360 295 424 392 484 497 c 0
 508 538 549 614 549 616 c 0
 549 617 548 621 546 625 c 0
 544 633 544 633 545 638 c 0
 551 659 588 683 615 683 c 0
 622 683 628 681 630 677 c 0
 632 674 649 622 657 595 c 0
 702 448 731 288 741 128 c 2
 742 110 l 1
 745 114 l 2
 762 133 808 194 830 225 c 0
 905 330 955 421 972 482 c 0
 975 492 976 502 976 511 c 0
 976 548 955 577 918 577 c 0
 907 577 906 586 906 602 c 0
 906 636 922 669 942 681 c 0
 945 682 949 683 954 683 c 0
 963 683 974 681 982 677 c 0
 1015 662 1034 625 1034 569 c 0
 1034 556 1033 543 1032 535 c 0
 1016 428 942 283 815 113 c 0
 765 46 694 -41 681 -49 c 0
 672 -55 664 -54 660 -45 c 0
 659 -40 659 -39 656 32 c 0
 651 182 628 338 591 477 c 0
 584 506 571 551 570 551 c 2
 570 551 567 545 563 539 c 0
 463 347 330 150 182 -25 c 0
 163 -48 159 -52 151 -53 c 0
 140 -53 137 -42 137 -30 c 0
 137 -21 139 -9 143 3 c 0
 147 16 157 73 164 123 c 0
 175 201 181 274 181 338 c 0
 181 477 152 620 40 620 c 0
 32 620 25 625 25 633 c 0
EndSplineSet
EndChar

StartChar: X
Encoding: 88 88 35
Width: 713
GlyphClass: 2
Flags: MW
HStem: 0 69<88 182> 614 69<324 412.5 324 412.5>
VStem: 52 100<42.5 110.5> 707 100<572.5 640.5>
LayerCount: 2
Fore
SplineSet
324 614 m 1
 306 593 274 574 250 573 c 0
 237 573 231 576 231 585 c 0
 231 587 231 589 232 592 c 0
 248 649 327 683 400 683 c 0
 425 683 435 679 449 667 c 0
 464 655 474 637 481 610 c 0
 490 573 501 413 501 413 c 2
 505 413 690 528 705 561 c 0
 707 565 707 567 707 578 c 0
 707 601 700 611 682 614 c 0
 674 614 667 618 667 626 c 0
 667 646 714 683 755 683 c 0
 789 683 807 658 807 623 c 0
 807 601 803 588 788 569 c 0
 779 556 756 533 739 519 c 0
 695 483 631 438 530 376 c 2
 505 361 l 1
 505 356 l 2
 508 346 517 164 528 125 c 0
 536 91 549 69 580 69 c 0
 585 69 585 69 593 77 c 0
 612 96 638 109 660 110 c 0
 675 110 680 106 678 94 c 0
 671 71 655 50 634 37 c 0
 599 11 560 0 510 0 c 0
 493 0 485 2 474 7 c 0
 425 32 423 99 416 188 c 0
 413 218 408 299 405 299 c 0
 402 299 310 241 272 216 c 0
 203 170 160 137 154 122 c 0
 152 118 152 116 152 105 c 0
 152 83 160 69 180 69 c 0
 184 69 191 64 191 60 c 0
 193 55 191 50 187 44 c 0
 173 23 138 0 105 0 c 0
 71 0 52 25 52 60 c 0
 52 89 62 108 93 139 c 0
 181 227 402 347 402 352 c 2
 391 489 l 2
 386 544 383 597 348 611 c 0
 344 612 337 613 333 614 c 2
 324 614 l 1
EndSplineSet
EndChar

StartChar: Y
Encoding: 89 89 36
Width: 668
GlyphClass: 2
Flags: MW
HStem: 586 97<78 234>
VStem: 31 54 336 88<159.5 297.5> 661 53<513 584>
LayerCount: 2
Fore
SplineSet
83 586 m 0
 73 586 65 589 65 599 c 0
 65 607 71 616 85 630 c 0
 115 661 156 683 204 683 c 0
 264 683 310 653 338 614 c 0
 401 528 424 378 424 217 c 0
 424 193 422 142 422 123 c 1
 423 123 448 150 464 168 c 0
 553 268 620 376 650 469 c 0
 658 494 661 507 661 519 c 0
 661 542 652 556 639 570 c 0
 628 580 604 591 583 591 c 0
 573 591 569 602 569 616 c 0
 569 645 585 673 600 681 c 0
 603 682 608 683 613 683 c 0
 635 683 656 674 670 663 c 0
 699 640 714 610 714 558 c 0
 714 533 713 524 706 496 c 0
 669 352 569 190 426 45 c 0
 325 -58 220 -134 166 -142 c 0
 162 -143 158 -143 154 -143 c 0
 141 -143 126 -141 114 -137 c 0
 71 -122 31 -76 31 -20 c 0
 31 12 55 46 70 46 c 0
 80 46 83 38 85 24 c 0
 95 -21 125 -46 173 -50 c 0
 182 -51 185 -51 190 -50 c 0
 215 -45 264 -16 314 25 c 0
 328 35 330 38 330 40 c 0
 333 59 336 141 336 178 c 0
 336 216 335 256 332 289 c 0
 320 444 283 548 223 594 c 0
 206 608 183 616 158 619 c 2
 148 620 l 1
 139 611 l 2
 122 596 101 586 83 586 c 0
EndSplineSet
EndChar

StartChar: Z
Encoding: 90 90 37
Width: 725
GlyphClass: 2
Flags: MW
HStem: 1 73<435 554> 22 74<137.5 200> 322 77<540 551> 343 57<343 391 343 343 329 470> 587 75<596 669 596 669> 609 74<358 490.5>
LayerCount: 2
Fore
SplineSet
51 0 m 0x40
 42 0 37 3 37 10 c 0
 37 18 46 30 63 45 c 0
 185 149 268 224 367 319 c 2
 391 343 l 1
 343 343 l 1
 296 344 l 2
 290 347 285 351 285 358 c 0
 285 371 299 387 321 396 c 2
 329 400 l 1
 450 400 l 1
 561 518 l 2
 586 546 592 552 607 571 c 2
 621 587 l 1
 596 587 l 2x58
 562 588 543 590 488 598 c 0
 439 605 405 609 383 609 c 0
 333 609 314 596 301 555 c 0
 296 540 286 529 265 515 c 0
 245 501 224 493 208 492 c 0
 194 492 189 494 189 503 c 0
 189 512 203 543 215 559 c 0
 260 622 356 675 439 682 c 0
 443 682 454 683 466 683 c 0x04
 515 683 517 682 580 672 c 0
 632 665 643 663 669 662 c 2x08
 690 661 l 1
 715 673 732 682 748 683 c 0
 759 683 767 681 767 673 c 0
 767 672 767 671 766 669 c 0
 764 663 762 660 746 640 c 0
 686 568 627 502 555 428 c 0
 540 412 529 401 529 400 c 0x14
 529 399 537 399 543 399 c 0
 574 398 593 392 602 375 c 0
 603 372 604 369 604 366 c 0
 604 343 572 323 551 322 c 0x20
 545 322 541 322 539 323 c 0
 535 325 529 331 529 334 c 0
 529 338 515 340 487 342 c 2
 470 343 l 1
 446 320 l 2
 371 248 291 174 205 100 c 1
 200 96 l 1x50
 235 95 l 2
 281 95 305 94 398 85 c 0
 468 78 494 76 533 74 c 2
 554 74 l 1
 572 98 588 123 597 159 c 0
 606 186 644 209 676 218 c 0
 682 220 686 220 694 220 c 0
 702 220 703 219 706 217 c 0
 709 213 709 209 706 197 c 0
 695 162 677 127 656 101 c 0
 617 52 559 15 502 3 c 0
 492 1 489 1 458 1 c 0x80
 412 1 393 2 301 11 c 0
 216 20 198 22 150 22 c 0
 125 22 112 19 94 12 c 0
 82 5 66 0 51 0 c 0x40
EndSplineSet
EndChar

StartChar: uniEFFD
Encoding: 61437 61437 39
Width: 300
GlyphClass: 2
Flags: MW
HStem: 0 100<0 100 0 100 200 300>
VStem: 0 100<0 100 0 100> 200 100<0 100 0 100>
LayerCount: 2
Fore
SplineSet
0 0 m 1
 0 100 l 1
 100 100 l 1
 100 0 l 1
 0 0 l 1
200 0 m 1
 200 100 l 1
 300 100 l 1
 300 0 l 1
 200 0 l 1
EndSplineSet
EndChar

StartChar: uniEFFE
Encoding: 61438 61438 40
Width: 500
GlyphClass: 2
Flags: MW
HStem: 0 100<0 100 0 100 400 500>
VStem: 0 100<0 100 0 100>
LayerCount: 2
Fore
SplineSet
0 0 m 1
 0 100 l 1
 100 100 l 1
 100 0 l 1
 0 0 l 1
400 0 m 1
 400 100 l 1
 500 100 l 1
 500 0 l 1
 400 0 l 1
EndSplineSet
EndChar

StartChar: uniEFFF
Encoding: 61439 61439 41
Width: 100
GlyphClass: 2
Flags: MW
HStem: 0 100<0 100 0 100>
VStem: 0 100<0 100 0 100>
LayerCount: 2
Fore
SplineSet
0 0 m 1
 0 100 l 1
 100 100 l 1
 100 0 l 1
 0 0 l 1
EndSplineSet
EndChar
